<svg xmlns="http://www.w3.org/2000/svg" xmlns:xlink="http://www.w3.org/1999/xlink" contentStyleType="text/css" height="1181px" preserveAspectRatio="none" style="width:2012px;height:1181px;background:#FFFFFF;" version="1.1" viewBox="0 0 2012 1181" width="2012px" zoomAndPan="magnify"><defs/><g><!--class Valid--><g id="elem_Valid"><rect codeLine="1" fill="#F1F1F1" height="80.5938" id="Valid" rx="2.5" ry="2.5" style="stroke:#181818;stroke-width:0.5;" width="84.9805" x="152.5" y="812"/><ellipse cx="175.6712" cy="828" fill="#ADD1B2" rx="11" ry="11" style="stroke:#181818;stroke-width:1;"/><path d="M178.6399,833.6406 Q178.0618,833.9375 177.4212,834.0781 Q176.7806,834.2344 176.0774,834.2344 Q173.5774,834.2344 172.2493,832.5938 Q170.9368,830.9375 170.9368,827.8125 Q170.9368,824.6875 172.2493,823.0313 Q173.5774,821.375 176.0774,821.375 Q176.7806,821.375 177.4212,821.5313 Q178.0774,821.6875 178.6399,821.9844 L178.6399,824.7031 Q178.0149,824.125 177.4212,823.8594 Q176.8274,823.5781 176.2024,823.5781 Q174.8587,823.5781 174.1712,824.6563 Q173.4837,825.7188 173.4837,827.8125 Q173.4837,829.9063 174.1712,830.9844 Q174.8587,832.0469 176.2024,832.0469 Q176.8274,832.0469 177.4212,831.7813 Q178.0149,831.5 178.6399,830.9219 L178.6399,833.6406 Z " fill="#000000"/><text fill="#000000" font-family="sans-serif" font-size="14" lengthAdjust="spacing" textLength="34.8223" x="191.487" y="832.8467">Valid</text><line style="stroke:#181818;stroke-width:0.5;" x1="153.5" x2="236.4805" y1="844" y2="844"/><ellipse cx="163.5" cy="857.6484" fill="none" rx="3" ry="3" style="stroke:#038048;stroke-width:1;"/><text fill="#000000" font-family="sans-serif" font-size="14" lengthAdjust="spacing" textLength="55.0771" x="172.5" y="860.9951">title: str</text><ellipse cx="163.5" cy="873.9453" fill="none" rx="3" ry="3" style="stroke:#038048;stroke-width:1;"/><text fill="#000000" font-family="sans-serif" font-size="14" lengthAdjust="spacing" textLength="58.9805" x="172.5" y="877.292">type: str</text><line style="stroke:#181818;stroke-width:0.5;" x1="153.5" x2="236.4805" y1="884.5938" y2="884.5938"/></g><!--class Properties--><g id="elem_Properties"><rect codeLine="6" fill="#F1F1F1" height="64.2969" id="Properties" rx="2.5" ry="2.5" style="stroke:#181818;stroke-width:0.5;" width="103.5195" x="553" y="615"/><ellipse cx="568.0962" cy="631" fill="#ADD1B2" rx="11" ry="11" style="stroke:#181818;stroke-width:1;"/><path d="M571.065,636.6406 Q570.4869,636.9375 569.8462,637.0781 Q569.2056,637.2344 568.5025,637.2344 Q566.0025,637.2344 564.6744,635.5938 Q563.3619,633.9375 563.3619,630.8125 Q563.3619,627.6875 564.6744,626.0313 Q566.0025,624.375 568.5025,624.375 Q569.2056,624.375 569.8462,624.5313 Q570.5025,624.6875 571.065,624.9844 L571.065,627.7031 Q570.44,627.125 569.8462,626.8594 Q569.2525,626.5781 568.6275,626.5781 Q567.2837,626.5781 566.5962,627.6563 Q565.9087,628.7188 565.9087,630.8125 Q565.9087,632.9063 566.5962,633.9844 Q567.2837,635.0469 568.6275,635.0469 Q569.2525,635.0469 569.8462,634.7813 Q570.44,634.5 571.065,633.9219 L571.065,636.6406 Z " fill="#000000"/><text fill="#000000" font-family="sans-serif" font-size="14" lengthAdjust="spacing" textLength="71.3057" x="582.1176" y="635.8467">Properties</text><line style="stroke:#181818;stroke-width:0.5;" x1="554" x2="655.5195" y1="647" y2="647"/><ellipse cx="564" cy="660.6484" fill="none" rx="3" ry="3" style="stroke:#038048;stroke-width:1;"/><text fill="#000000" font-family="sans-serif" font-size="14" lengthAdjust="spacing" textLength="77.5195" x="573" y="663.9951">valid: Valid</text><line style="stroke:#181818;stroke-width:0.5;" x1="554" x2="655.5195" y1="671.2969" y2="671.2969"/></g><!--class Flag--><g id="elem_Flag"><rect codeLine="10" fill="#F1F1F1" height="113.1875" id="Flag" rx="2.5" ry="2.5" style="stroke:#181818;stroke-width:0.5;" width="178.2227" x="577" y="385"/><ellipse cx="647.1572" cy="401" fill="#ADD1B2" rx="11" ry="11" style="stroke:#181818;stroke-width:1;"/><path d="M650.126,406.6406 Q649.5479,406.9375 648.9072,407.0781 Q648.2666,407.2344 647.5635,407.2344 Q645.0635,407.2344 643.7354,405.5938 Q642.4229,403.9375 642.4229,400.8125 Q642.4229,397.6875 643.7354,396.0313 Q645.0635,394.375 647.5635,394.375 Q648.2666,394.375 648.9072,394.5313 Q649.5635,394.6875 650.126,394.9844 L650.126,397.7031 Q649.501,397.125 648.9072,396.8594 Q648.3135,396.5781 647.6885,396.5781 Q646.3447,396.5781 645.6572,397.6563 Q644.9697,398.7188 644.9697,400.8125 Q644.9697,402.9063 645.6572,403.9844 Q646.3447,405.0469 647.6885,405.0469 Q648.3135,405.0469 648.9072,404.7813 Q649.501,404.5 650.126,403.9219 L650.126,406.6406 Z " fill="#000000"/><text fill="#000000" font-family="sans-serif" font-size="14" lengthAdjust="spacing" textLength="29.4082" x="667.6572" y="405.8467">Flag</text><line style="stroke:#181818;stroke-width:0.5;" x1="578" x2="754.2227" y1="417" y2="417"/><ellipse cx="588" cy="430.6484" fill="none" rx="3" ry="3" style="stroke:#038048;stroke-width:1;"/><text fill="#000000" font-family="sans-serif" font-size="14" lengthAdjust="spacing" textLength="152.2227" x="597" y="433.9951">properties: Properties</text><ellipse cx="588" cy="446.9453" fill="none" rx="3" ry="3" style="stroke:#038048;stroke-width:1;"/><text fill="#000000" font-family="sans-serif" font-size="14" lengthAdjust="spacing" textLength="122.377" x="597" y="450.292">required: List[str]</text><ellipse cx="588" cy="463.2422" fill="none" rx="3" ry="3" style="stroke:#038048;stroke-width:1;"/><text fill="#000000" font-family="sans-serif" font-size="14" lengthAdjust="spacing" textLength="55.0771" x="597" y="466.5889">title: str</text><ellipse cx="588" cy="479.5391" fill="none" rx="3" ry="3" style="stroke:#038048;stroke-width:1;"/><text fill="#000000" font-family="sans-serif" font-size="14" lengthAdjust="spacing" textLength="58.9805" x="597" y="482.8857">type: str</text><line style="stroke:#181818;stroke-width:0.5;" x1="578" x2="754.2227" y1="490.1875" y2="490.1875"/></g><!--class Root--><g id="elem_Root"><rect codeLine="17" fill="#F1F1F1" height="64.2969" id="Root" rx="2.5" ry="2.5" style="stroke:#181818;stroke-width:0.5;" width="110.2119" x="1895" y="820.5"/><ellipse cx="1930.6389" cy="836.5" fill="#ADD1B2" rx="11" ry="11" style="stroke:#181818;stroke-width:1;"/><path d="M1933.6077,842.1406 Q1933.0295,842.4375 1932.3889,842.5781 Q1931.7483,842.7344 1931.0452,842.7344 Q1928.5452,842.7344 1927.217,841.0938 Q1925.9045,839.4375 1925.9045,836.3125 Q1925.9045,833.1875 1927.217,831.5313 Q1928.5452,829.875 1931.0452,829.875 Q1931.7483,829.875 1932.3889,830.0313 Q1933.0452,830.1875 1933.6077,830.4844 L1933.6077,833.2031 Q1932.9827,832.625 1932.3889,832.3594 Q1931.7952,832.0781 1931.1702,832.0781 Q1929.8264,832.0781 1929.1389,833.1563 Q1928.4514,834.2188 1928.4514,836.3125 Q1928.4514,838.4063 1929.1389,839.4844 Q1929.8264,840.5469 1931.1702,840.5469 Q1931.7952,840.5469 1932.3889,840.2813 Q1932.9827,840 1933.6077,839.4219 L1933.6077,842.1406 Z " fill="#000000"/><text fill="#000000" font-family="sans-serif" font-size="14" lengthAdjust="spacing" textLength="32.3477" x="1949.2253" y="841.3467">Root</text><line style="stroke:#181818;stroke-width:0.5;" x1="1896" x2="2004.2119" y1="852.5" y2="852.5"/><ellipse cx="1906" cy="866.1484" fill="none" rx="3" ry="3" style="stroke:#038048;stroke-width:1;"/><text fill="#000000" font-family="sans-serif" font-size="14" lengthAdjust="spacing" textLength="84.2119" x="1915" y="869.4951">field_ref: str</text><line style="stroke:#181818;stroke-width:0.5;" x1="1896" x2="2004.2119" y1="876.7969" y2="876.7969"/></g><!--class Properties1--><g id="elem_Properties1"><rect codeLine="21" fill="#F1F1F1" height="64.2969" id="Properties1" rx="2.5" ry="2.5" style="stroke:#181818;stroke-width:0.5;" width="112.2129" x="1373" y="615"/><ellipse cx="1388" cy="631" fill="#ADD1B2" rx="11" ry="11" style="stroke:#181818;stroke-width:1;"/><path d="M1390.9688,636.6406 Q1390.3906,636.9375 1389.75,637.0781 Q1389.1094,637.2344 1388.4063,637.2344 Q1385.9063,637.2344 1384.5781,635.5938 Q1383.2656,633.9375 1383.2656,630.8125 Q1383.2656,627.6875 1384.5781,626.0313 Q1385.9063,624.375 1388.4063,624.375 Q1389.1094,624.375 1389.75,624.5313 Q1390.4063,624.6875 1390.9688,624.9844 L1390.9688,627.7031 Q1390.3438,627.125 1389.75,626.8594 Q1389.1563,626.5781 1388.5313,626.5781 Q1387.1875,626.5781 1386.5,627.6563 Q1385.8125,628.7188 1385.8125,630.8125 Q1385.8125,632.9063 1386.5,633.9844 Q1387.1875,635.0469 1388.5313,635.0469 Q1389.1563,635.0469 1389.75,634.7813 Q1390.3438,634.5 1390.9688,633.9219 L1390.9688,636.6406 Z " fill="#000000"/><text fill="#000000" font-family="sans-serif" font-size="14" lengthAdjust="spacing" textLength="80.2129" x="1402" y="635.8467">Properties1</text><line style="stroke:#181818;stroke-width:0.5;" x1="1374" x2="1484.2129" y1="647" y2="647"/><ellipse cx="1384" cy="660.6484" fill="none" rx="3" ry="3" style="stroke:#038048;stroke-width:1;"/><text fill="#000000" font-family="sans-serif" font-size="14" lengthAdjust="spacing" textLength="69.8906" x="1393" y="663.9951">root: Root</text><line style="stroke:#181818;stroke-width:0.5;" x1="1374" x2="1484.2129" y1="671.2969" y2="671.2969"/></g><!--class Hierarchical--><g id="elem_Hierarchical"><rect codeLine="25" fill="#F1F1F1" height="113.1875" id="Hierarchical" rx="2.5" ry="2.5" style="stroke:#181818;stroke-width:0.5;" width="187.1299" x="1295.5" y="385"/><ellipse cx="1342.9414" cy="401" fill="#ADD1B2" rx="11" ry="11" style="stroke:#181818;stroke-width:1;"/><path d="M1345.9102,406.6406 Q1345.332,406.9375 1344.6914,407.0781 Q1344.0508,407.2344 1343.3477,407.2344 Q1340.8477,407.2344 1339.5195,405.5938 Q1338.207,403.9375 1338.207,400.8125 Q1338.207,397.6875 1339.5195,396.0313 Q1340.8477,394.375 1343.3477,394.375 Q1344.0508,394.375 1344.6914,394.5313 Q1345.3477,394.6875 1345.9102,394.9844 L1345.9102,397.7031 Q1345.2852,397.125 1344.6914,396.8594 Q1344.0977,396.5781 1343.4727,396.5781 Q1342.1289,396.5781 1341.4414,397.6563 Q1340.7539,398.7188 1340.7539,400.8125 Q1340.7539,402.9063 1341.4414,403.9844 Q1342.1289,405.0469 1343.4727,405.0469 Q1344.0977,405.0469 1344.6914,404.7813 Q1345.2852,404.5 1345.9102,403.9219 L1345.9102,406.6406 Z " fill="#000000"/><text fill="#000000" font-family="sans-serif" font-size="14" lengthAdjust="spacing" textLength="83.7471" x="1363.4414" y="405.8467">Hierarchical</text><line style="stroke:#181818;stroke-width:0.5;" x1="1296.5" x2="1481.6299" y1="417" y2="417"/><ellipse cx="1306.5" cy="430.6484" fill="none" rx="3" ry="3" style="stroke:#038048;stroke-width:1;"/><text fill="#000000" font-family="sans-serif" font-size="14" lengthAdjust="spacing" textLength="161.1299" x="1315.5" y="433.9951">properties: Properties1</text><ellipse cx="1306.5" cy="446.9453" fill="none" rx="3" ry="3" style="stroke:#038048;stroke-width:1;"/><text fill="#000000" font-family="sans-serif" font-size="14" lengthAdjust="spacing" textLength="122.377" x="1315.5" y="450.292">required: List[str]</text><ellipse cx="1306.5" cy="463.2422" fill="none" rx="3" ry="3" style="stroke:#038048;stroke-width:1;"/><text fill="#000000" font-family="sans-serif" font-size="14" lengthAdjust="spacing" textLength="55.0771" x="1315.5" y="466.5889">title: str</text><ellipse cx="1306.5" cy="479.5391" fill="none" rx="3" ry="3" style="stroke:#038048;stroke-width:1;"/><text fill="#000000" font-family="sans-serif" font-size="14" lengthAdjust="spacing" textLength="58.9805" x="1315.5" y="482.8857">type: str</text><line style="stroke:#181818;stroke-width:0.5;" x1="1296.5" x2="1481.6299" y1="490.1875" y2="490.1875"/></g><!--class Details--><g id="elem_Details"><rect codeLine="32" fill="#F1F1F1" height="64.2969" id="Details" rx="2.5" ry="2.5" style="stroke:#181818;stroke-width:0.5;" width="110.2119" x="7" y="820.5"/><ellipse cx="35.3545" cy="836.5" fill="#ADD1B2" rx="11" ry="11" style="stroke:#181818;stroke-width:1;"/><path d="M38.3233,842.1406 Q37.7452,842.4375 37.1045,842.5781 Q36.4639,842.7344 35.7608,842.7344 Q33.2608,842.7344 31.9327,841.0938 Q30.6202,839.4375 30.6202,836.3125 Q30.6202,833.1875 31.9327,831.5313 Q33.2608,829.875 35.7608,829.875 Q36.4639,829.875 37.1045,830.0313 Q37.7608,830.1875 38.3233,830.4844 L38.3233,833.2031 Q37.6983,832.625 37.1045,832.3594 Q36.5108,832.0781 35.8858,832.0781 Q34.542,832.0781 33.8545,833.1563 Q33.167,834.2188 33.167,836.3125 Q33.167,838.4063 33.8545,839.4844 Q34.542,840.5469 35.8858,840.5469 Q36.5108,840.5469 37.1045,840.2813 Q37.6983,840 38.3233,839.4219 L38.3233,842.1406 Z " fill="#000000"/><text fill="#000000" font-family="sans-serif" font-size="14" lengthAdjust="spacing" textLength="48.5352" x="52.3222" y="841.3467">Details</text><line style="stroke:#181818;stroke-width:0.5;" x1="8" x2="116.2119" y1="852.5" y2="852.5"/><ellipse cx="18" cy="866.1484" fill="none" rx="3" ry="3" style="stroke:#038048;stroke-width:1;"/><text fill="#000000" font-family="sans-serif" font-size="14" lengthAdjust="spacing" textLength="84.2119" x="27" y="869.4951">field_ref: str</text><line style="stroke:#181818;stroke-width:0.5;" x1="8" x2="116.2119" y1="876.7969" y2="876.7969"/></g><!--class Properties2--><g id="elem_Properties2"><rect codeLine="36" fill="#F1F1F1" height="80.5938" id="Properties2" rx="2.5" ry="2.5" style="stroke:#181818;stroke-width:0.5;" width="130.3438" x="130" y="606.5"/><ellipse cx="153.1589" cy="622.5" fill="#ADD1B2" rx="11" ry="11" style="stroke:#181818;stroke-width:1;"/><path d="M156.1276,628.1406 Q155.5495,628.4375 154.9089,628.5781 Q154.2683,628.7344 153.5651,628.7344 Q151.0651,628.7344 149.737,627.0938 Q148.4245,625.4375 148.4245,622.3125 Q148.4245,619.1875 149.737,617.5313 Q151.0651,615.875 153.5651,615.875 Q154.2683,615.875 154.9089,616.0313 Q155.5651,616.1875 156.1276,616.4844 L156.1276,619.2031 Q155.5026,618.625 154.9089,618.3594 Q154.3151,618.0781 153.6901,618.0781 Q152.3464,618.0781 151.6589,619.1563 Q150.9714,620.2188 150.9714,622.3125 Q150.9714,624.4063 151.6589,625.4844 Q152.3464,626.5469 153.6901,626.5469 Q154.3151,626.5469 154.9089,626.2813 Q155.5026,626 156.1276,625.4219 L156.1276,628.1406 Z " fill="#000000"/><text fill="#000000" font-family="sans-serif" font-size="14" lengthAdjust="spacing" textLength="80.2129" x="168.972" y="627.3467">Properties2</text><line style="stroke:#181818;stroke-width:0.5;" x1="131" x2="259.3438" y1="638.5" y2="638.5"/><ellipse cx="141" cy="652.1484" fill="none" rx="3" ry="3" style="stroke:#038048;stroke-width:1;"/><text fill="#000000" font-family="sans-serif" font-size="14" lengthAdjust="spacing" textLength="77.5195" x="150" y="655.4951">valid: Valid</text><ellipse cx="141" cy="668.4453" fill="none" rx="3" ry="3" style="stroke:#038048;stroke-width:1;"/><text fill="#000000" font-family="sans-serif" font-size="14" lengthAdjust="spacing" textLength="104.3438" x="150" y="671.792">details: Details</text><line style="stroke:#181818;stroke-width:0.5;" x1="131" x2="259.3438" y1="679.0938" y2="679.0938"/></g><!--class ListModel--><g id="elem_ListModel"><rect codeLine="41" fill="#F1F1F1" height="113.1875" id="ListModel" rx="2.5" ry="2.5" style="stroke:#181818;stroke-width:0.5;" width="187.1299" x="309.5" y="385"/><ellipse cx="365.5615" cy="401" fill="#ADD1B2" rx="11" ry="11" style="stroke:#181818;stroke-width:1;"/><path d="M368.5303,406.6406 Q367.9521,406.9375 367.3115,407.0781 Q366.6709,407.2344 365.9678,407.2344 Q363.4678,407.2344 362.1396,405.5938 Q360.8271,403.9375 360.8271,400.8125 Q360.8271,397.6875 362.1396,396.0313 Q363.4678,394.375 365.9678,394.375 Q366.6709,394.375 367.3115,394.5313 Q367.9678,394.6875 368.5303,394.9844 L368.5303,397.7031 Q367.9053,397.125 367.3115,396.8594 Q366.7178,396.5781 366.0928,396.5781 Q364.749,396.5781 364.0615,397.6563 Q363.374,398.7188 363.374,400.8125 Q363.374,402.9063 364.0615,403.9844 Q364.749,405.0469 366.0928,405.0469 Q366.7178,405.0469 367.3115,404.7813 Q367.9053,404.5 368.5303,403.9219 L368.5303,406.6406 Z " fill="#000000"/><text fill="#000000" font-family="sans-serif" font-size="14" lengthAdjust="spacing" textLength="66.5068" x="386.0615" y="405.8467">ListModel</text><line style="stroke:#181818;stroke-width:0.5;" x1="310.5" x2="495.6299" y1="417" y2="417"/><ellipse cx="320.5" cy="430.6484" fill="none" rx="3" ry="3" style="stroke:#038048;stroke-width:1;"/><text fill="#000000" font-family="sans-serif" font-size="14" lengthAdjust="spacing" textLength="161.1299" x="329.5" y="433.9951">properties: Properties2</text><ellipse cx="320.5" cy="446.9453" fill="none" rx="3" ry="3" style="stroke:#038048;stroke-width:1;"/><text fill="#000000" font-family="sans-serif" font-size="14" lengthAdjust="spacing" textLength="122.377" x="329.5" y="450.292">required: List[str]</text><ellipse cx="320.5" cy="463.2422" fill="none" rx="3" ry="3" style="stroke:#038048;stroke-width:1;"/><text fill="#000000" font-family="sans-serif" font-size="14" lengthAdjust="spacing" textLength="55.0771" x="329.5" y="466.5889">title: str</text><ellipse cx="320.5" cy="479.5391" fill="none" rx="3" ry="3" style="stroke:#038048;stroke-width:1;"/><text fill="#000000" font-family="sans-serif" font-size="14" lengthAdjust="spacing" textLength="58.9805" x="329.5" y="482.8857">type: str</text><line style="stroke:#181818;stroke-width:0.5;" x1="310.5" x2="495.6299" y1="490.1875" y2="490.1875"/></g><!--class EvaluationPath--><g id="elem_EvaluationPath"><rect codeLine="48" fill="#F1F1F1" height="80.5938" id="EvaluationPath" rx="2.5" ry="2.5" style="stroke:#181818;stroke-width:0.5;" width="137.2529" x="978.5" y="812"/><ellipse cx="993.5" cy="828" fill="#ADD1B2" rx="11" ry="11" style="stroke:#181818;stroke-width:1;"/><path d="M996.4688,833.6406 Q995.8906,833.9375 995.25,834.0781 Q994.6094,834.2344 993.9063,834.2344 Q991.4063,834.2344 990.0781,832.5938 Q988.7656,830.9375 988.7656,827.8125 Q988.7656,824.6875 990.0781,823.0313 Q991.4063,821.375 993.9063,821.375 Q994.6094,821.375 995.25,821.5313 Q995.9063,821.6875 996.4688,821.9844 L996.4688,824.7031 Q995.8438,824.125 995.25,823.8594 Q994.6563,823.5781 994.0313,823.5781 Q992.6875,823.5781 992,824.6563 Q991.3125,825.7188 991.3125,827.8125 Q991.3125,829.9063 992,830.9844 Q992.6875,832.0469 994.0313,832.0469 Q994.6563,832.0469 995.25,831.7813 Q995.8438,831.5 996.4688,830.9219 L996.4688,833.6406 Z " fill="#000000"/><text fill="#000000" font-family="sans-serif" font-size="14" lengthAdjust="spacing" textLength="105.2529" x="1007.5" y="832.8467">EvaluationPath</text><line style="stroke:#181818;stroke-width:0.5;" x1="979.5" x2="1114.7529" y1="844" y2="844"/><ellipse cx="989.5" cy="857.6484" fill="none" rx="3" ry="3" style="stroke:#038048;stroke-width:1;"/><text fill="#000000" font-family="sans-serif" font-size="14" lengthAdjust="spacing" textLength="55.0771" x="998.5" y="860.9951">title: str</text><ellipse cx="989.5" cy="873.9453" fill="none" rx="3" ry="3" style="stroke:#038048;stroke-width:1;"/><text fill="#000000" font-family="sans-serif" font-size="14" lengthAdjust="spacing" textLength="58.9805" x="998.5" y="877.292">type: str</text><line style="stroke:#181818;stroke-width:0.5;" x1="979.5" x2="1114.7529" y1="884.5938" y2="884.5938"/></g><!--class SchemaLocation--><g id="elem_SchemaLocation"><rect codeLine="53" fill="#F1F1F1" height="113.1875" id="SchemaLocation" rx="2.5" ry="2.5" style="stroke:#181818;stroke-width:0.5;" width="147.7461" x="1151" y="796"/><ellipse cx="1166" cy="812" fill="#ADD1B2" rx="11" ry="11" style="stroke:#181818;stroke-width:1;"/><path d="M1168.9688,817.6406 Q1168.3906,817.9375 1167.75,818.0781 Q1167.1094,818.2344 1166.4063,818.2344 Q1163.9063,818.2344 1162.5781,816.5938 Q1161.2656,814.9375 1161.2656,811.8125 Q1161.2656,808.6875 1162.5781,807.0313 Q1163.9063,805.375 1166.4063,805.375 Q1167.1094,805.375 1167.75,805.5313 Q1168.4063,805.6875 1168.9688,805.9844 L1168.9688,808.7031 Q1168.3438,808.125 1167.75,807.8594 Q1167.1563,807.5781 1166.5313,807.5781 Q1165.1875,807.5781 1164.5,808.6563 Q1163.8125,809.7188 1163.8125,811.8125 Q1163.8125,813.9063 1164.5,814.9844 Q1165.1875,816.0469 1166.5313,816.0469 Q1167.1563,816.0469 1167.75,815.7813 Q1168.3438,815.5 1168.9688,814.9219 L1168.9688,817.6406 Z " fill="#000000"/><text fill="#000000" font-family="sans-serif" font-size="14" lengthAdjust="spacing" textLength="115.7461" x="1180" y="816.8467">SchemaLocation</text><line style="stroke:#181818;stroke-width:0.5;" x1="1152" x2="1297.7461" y1="828" y2="828"/><ellipse cx="1162" cy="841.6484" fill="none" rx="3" ry="3" style="stroke:#038048;stroke-width:1;"/><text fill="#000000" font-family="sans-serif" font-size="14" lengthAdjust="spacing" textLength="74.6621" x="1171" y="844.9951">format: str</text><ellipse cx="1162" cy="857.9453" fill="none" rx="3" ry="3" style="stroke:#038048;stroke-width:1;"/><text fill="#000000" font-family="sans-serif" font-size="14" lengthAdjust="spacing" textLength="105.4443" x="1171" y="861.292">min_length: int</text><ellipse cx="1162" cy="874.2422" fill="none" rx="3" ry="3" style="stroke:#038048;stroke-width:1;"/><text fill="#000000" font-family="sans-serif" font-size="14" lengthAdjust="spacing" textLength="55.0771" x="1171" y="877.5889">title: str</text><ellipse cx="1162" cy="890.5391" fill="none" rx="3" ry="3" style="stroke:#038048;stroke-width:1;"/><text fill="#000000" font-family="sans-serif" font-size="14" lengthAdjust="spacing" textLength="58.9805" x="1171" y="893.8857">type: str</text><line style="stroke:#181818;stroke-width:0.5;" x1="1152" x2="1297.7461" y1="901.1875" y2="901.1875"/></g><!--class InstanceLocation--><g id="elem_InstanceLocation"><rect codeLine="60" fill="#F1F1F1" height="80.5938" id="InstanceLocation" rx="2.5" ry="2.5" style="stroke:#181818;stroke-width:0.5;" width="151.0068" x="1334.5" y="812"/><ellipse cx="1349.5" cy="828" fill="#ADD1B2" rx="11" ry="11" style="stroke:#181818;stroke-width:1;"/><path d="M1352.4688,833.6406 Q1351.8906,833.9375 1351.25,834.0781 Q1350.6094,834.2344 1349.9063,834.2344 Q1347.4063,834.2344 1346.0781,832.5938 Q1344.7656,830.9375 1344.7656,827.8125 Q1344.7656,824.6875 1346.0781,823.0313 Q1347.4063,821.375 1349.9063,821.375 Q1350.6094,821.375 1351.25,821.5313 Q1351.9063,821.6875 1352.4688,821.9844 L1352.4688,824.7031 Q1351.8438,824.125 1351.25,823.8594 Q1350.6563,823.5781 1350.0313,823.5781 Q1348.6875,823.5781 1348,824.6563 Q1347.3125,825.7188 1347.3125,827.8125 Q1347.3125,829.9063 1348,830.9844 Q1348.6875,832.0469 1350.0313,832.0469 Q1350.6563,832.0469 1351.25,831.7813 Q1351.8438,831.5 1352.4688,830.9219 L1352.4688,833.6406 Z " fill="#000000"/><text fill="#000000" font-family="sans-serif" font-size="14" lengthAdjust="spacing" textLength="119.0068" x="1363.5" y="832.8467">InstanceLocation</text><line style="stroke:#181818;stroke-width:0.5;" x1="1335.5" x2="1484.5068" y1="844" y2="844"/><ellipse cx="1345.5" cy="857.6484" fill="none" rx="3" ry="3" style="stroke:#038048;stroke-width:1;"/><text fill="#000000" font-family="sans-serif" font-size="14" lengthAdjust="spacing" textLength="55.0771" x="1354.5" y="860.9951">title: str</text><ellipse cx="1345.5" cy="873.9453" fill="none" rx="3" ry="3" style="stroke:#038048;stroke-width:1;"/><text fill="#000000" font-family="sans-serif" font-size="14" lengthAdjust="spacing" textLength="58.9805" x="1354.5" y="877.292">type: str</text><line style="stroke:#181818;stroke-width:0.5;" x1="1335.5" x2="1484.5068" y1="884.5938" y2="884.5938"/></g><!--class AnyOfItem--><g id="elem_AnyOfItem"><rect codeLine="65" fill="#F1F1F1" height="80.5938" id="AnyOfItem" rx="2.5" ry="2.5" style="stroke:#181818;stroke-width:0.5;" width="110.2119" x="1561" y="969"/><ellipse cx="1577.6466" cy="985" fill="#ADD1B2" rx="11" ry="11" style="stroke:#181818;stroke-width:1;"/><path d="M1580.6154,990.6406 Q1580.0373,990.9375 1579.3966,991.0781 Q1578.756,991.2344 1578.0529,991.2344 Q1575.5529,991.2344 1574.2248,989.5938 Q1572.9123,987.9375 1572.9123,984.8125 Q1572.9123,981.6875 1574.2248,980.0313 Q1575.5529,978.375 1578.0529,978.375 Q1578.756,978.375 1579.3966,978.5313 Q1580.0529,978.6875 1580.6154,978.9844 L1580.6154,981.7031 Q1579.9904,981.125 1579.3966,980.8594 Q1578.8029,980.5781 1578.1779,980.5781 Q1576.8341,980.5781 1576.1466,981.6563 Q1575.4591,982.7188 1575.4591,984.8125 Q1575.4591,986.9063 1576.1466,987.9844 Q1576.8341,989.0469 1578.1779,989.0469 Q1578.8029,989.0469 1579.3966,988.7813 Q1579.9904,988.5 1580.6154,987.9219 L1580.6154,990.6406 Z " fill="#000000"/><text fill="#000000" font-family="sans-serif" font-size="14" lengthAdjust="spacing" textLength="74.5527" x="1592.0125" y="989.8467">AnyOfItem</text><line style="stroke:#181818;stroke-width:0.5;" x1="1562" x2="1670.2119" y1="1001" y2="1001"/><ellipse cx="1572" cy="1014.6484" fill="none" rx="3" ry="3" style="stroke:#038048;stroke-width:1;"/><text fill="#000000" font-family="sans-serif" font-size="14" lengthAdjust="spacing" textLength="84.2119" x="1581" y="1017.9951">field_ref: str</text><ellipse cx="1572" cy="1030.9453" fill="none" rx="3" ry="3" style="stroke:#038048;stroke-width:1;"/><text fill="#000000" font-family="sans-serif" font-size="14" lengthAdjust="spacing" textLength="58.9805" x="1581" y="1034.292">type: str</text><line style="stroke:#181818;stroke-width:0.5;" x1="1562" x2="1670.2119" y1="1041.5938" y2="1041.5938"/></g><!--class Details1--><g id="elem_Details1"><rect codeLine="70" fill="#F1F1F1" height="80.5938" id="Details1" rx="2.5" ry="2.5" style="stroke:#181818;stroke-width:0.5;" width="191.3477" x="1520.5" y="812"/><ellipse cx="1583.2026" cy="828" fill="#ADD1B2" rx="11" ry="11" style="stroke:#181818;stroke-width:1;"/><path d="M1586.1714,833.6406 Q1585.5933,833.9375 1584.9526,834.0781 Q1584.312,834.2344 1583.6089,834.2344 Q1581.1089,834.2344 1579.7808,832.5938 Q1578.4683,830.9375 1578.4683,827.8125 Q1578.4683,824.6875 1579.7808,823.0313 Q1581.1089,821.375 1583.6089,821.375 Q1584.312,821.375 1584.9526,821.5313 Q1585.6089,821.6875 1586.1714,821.9844 L1586.1714,824.7031 Q1585.5464,824.125 1584.9526,823.8594 Q1584.3589,823.5781 1583.7339,823.5781 Q1582.3901,823.5781 1581.7026,824.6563 Q1581.0151,825.7188 1581.0151,827.8125 Q1581.0151,829.9063 1581.7026,830.9844 Q1582.3901,832.0469 1583.7339,832.0469 Q1584.3589,832.0469 1584.9526,831.7813 Q1585.5464,831.5 1586.1714,830.9219 L1586.1714,833.6406 Z " fill="#000000"/><text fill="#000000" font-family="sans-serif" font-size="14" lengthAdjust="spacing" textLength="57.4424" x="1603.7026" y="832.8467">Details1</text><line style="stroke:#181818;stroke-width:0.5;" x1="1521.5" x2="1710.8477" y1="844" y2="844"/><ellipse cx="1531.5" cy="857.6484" fill="none" rx="3" ry="3" style="stroke:#038048;stroke-width:1;"/><text fill="#000000" font-family="sans-serif" font-size="14" lengthAdjust="spacing" textLength="165.3477" x="1540.5" y="860.9951">any_of: List[AnyOfItem]</text><ellipse cx="1531.5" cy="873.9453" fill="none" rx="3" ry="3" style="stroke:#038048;stroke-width:1;"/><text fill="#000000" font-family="sans-serif" font-size="14" lengthAdjust="spacing" textLength="94.9512" x="1540.5" y="877.292">default: None</text><line style="stroke:#181818;stroke-width:0.5;" x1="1521.5" x2="1710.8477" y1="884.5938" y2="884.5938"/></g><!--class Annotations--><g id="elem_Annotations"><rect codeLine="75" fill="#F1F1F1" height="96.8906" id="Annotations" rx="2.5" ry="2.5" style="stroke:#181818;stroke-width:0.5;" width="200.2549" x="508" y="804"/><ellipse cx="561.8433" cy="820" fill="#ADD1B2" rx="11" ry="11" style="stroke:#181818;stroke-width:1;"/><path d="M564.812,825.6406 Q564.2339,825.9375 563.5933,826.0781 Q562.9526,826.2344 562.2495,826.2344 Q559.7495,826.2344 558.4214,824.5938 Q557.1089,822.9375 557.1089,819.8125 Q557.1089,816.6875 558.4214,815.0313 Q559.7495,813.375 562.2495,813.375 Q562.9526,813.375 563.5933,813.5313 Q564.2495,813.6875 564.812,813.9844 L564.812,816.7031 Q564.187,816.125 563.5933,815.8594 Q562.9995,815.5781 562.3745,815.5781 Q561.0308,815.5781 560.3433,816.6563 Q559.6558,817.7188 559.6558,819.8125 Q559.6558,821.9063 560.3433,822.9844 Q561.0308,824.0469 562.3745,824.0469 Q562.9995,824.0469 563.5933,823.7813 Q564.187,823.5 564.812,822.9219 L564.812,825.6406 Z " fill="#000000"/><text fill="#000000" font-family="sans-serif" font-size="14" lengthAdjust="spacing" textLength="84.0684" x="582.3433" y="824.8467">Annotations</text><line style="stroke:#181818;stroke-width:0.5;" x1="509" x2="707.2549" y1="836" y2="836"/><ellipse cx="519" cy="849.6484" fill="none" rx="3" ry="3" style="stroke:#038048;stroke-width:1;"/><text fill="#000000" font-family="sans-serif" font-size="14" lengthAdjust="spacing" textLength="174.2549" x="528" y="852.9951">any_of: List[AnyOfItem1]</text><ellipse cx="519" cy="865.9453" fill="none" rx="3" ry="3" style="stroke:#038048;stroke-width:1;"/><text fill="#000000" font-family="sans-serif" font-size="14" lengthAdjust="spacing" textLength="94.9512" x="528" y="869.292">default: None</text><ellipse cx="519" cy="882.2422" fill="none" rx="3" ry="3" style="stroke:#038048;stroke-width:1;"/><text fill="#000000" font-family="sans-serif" font-size="14" lengthAdjust="spacing" textLength="55.0771" x="528" y="885.5889">title: str</text><line style="stroke:#181818;stroke-width:0.5;" x1="509" x2="707.2549" y1="892.8906" y2="892.8906"/></g><!--class DroppedAnnotations--><g id="elem_DroppedAnnotations"><rect codeLine="81" fill="#F1F1F1" height="96.8906" id="DroppedAnnotations" rx="2.5" ry="2.5" style="stroke:#181818;stroke-width:0.5;" width="200.2549" x="273" y="804"/><ellipse cx="298.7152" cy="820" fill="#ADD1B2" rx="11" ry="11" style="stroke:#181818;stroke-width:1;"/><path d="M301.6839,825.6406 Q301.1058,825.9375 300.4652,826.0781 Q299.8246,826.2344 299.1214,826.2344 Q296.6214,826.2344 295.2933,824.5938 Q293.9808,822.9375 293.9808,819.8125 Q293.9808,816.6875 295.2933,815.0313 Q296.6214,813.375 299.1214,813.375 Q299.8246,813.375 300.4652,813.5313 Q301.1214,813.6875 301.6839,813.9844 L301.6839,816.7031 Q301.0589,816.125 300.4652,815.8594 Q299.8714,815.5781 299.2464,815.5781 Q297.9027,815.5781 297.2152,816.6563 Q296.5277,817.7188 296.5277,819.8125 Q296.5277,821.9063 297.2152,822.9844 Q297.9027,824.0469 299.2464,824.0469 Q299.8714,824.0469 300.4652,823.7813 Q301.0589,823.5 301.6839,822.9219 L301.6839,825.6406 Z " fill="#000000"/><text fill="#000000" font-family="sans-serif" font-size="14" lengthAdjust="spacing" textLength="144.4434" x="315.0963" y="824.8467">DroppedAnnotations</text><line style="stroke:#181818;stroke-width:0.5;" x1="274" x2="472.2549" y1="836" y2="836"/><ellipse cx="284" cy="849.6484" fill="none" rx="3" ry="3" style="stroke:#038048;stroke-width:1;"/><text fill="#000000" font-family="sans-serif" font-size="14" lengthAdjust="spacing" textLength="174.2549" x="293" y="852.9951">any_of: List[AnyOfItem1]</text><ellipse cx="284" cy="865.9453" fill="none" rx="3" ry="3" style="stroke:#038048;stroke-width:1;"/><text fill="#000000" font-family="sans-serif" font-size="14" lengthAdjust="spacing" textLength="94.9512" x="293" y="869.292">default: None</text><ellipse cx="284" cy="882.2422" fill="none" rx="3" ry="3" style="stroke:#038048;stroke-width:1;"/><text fill="#000000" font-family="sans-serif" font-size="14" lengthAdjust="spacing" textLength="55.0771" x="293" y="885.5889">title: str</text><line style="stroke:#181818;stroke-width:0.5;" x1="274" x2="472.2549" y1="892.8906" y2="892.8906"/></g><!--class AdditionalProperties--><g id="elem_AdditionalProperties"><rect codeLine="87" fill="#F1F1F1" height="64.2969" id="AdditionalProperties" rx="2.5" ry="2.5" style="stroke:#181818;stroke-width:0.5;" width="173.832" x="756" y="1110"/><ellipse cx="771" cy="1126" fill="#ADD1B2" rx="11" ry="11" style="stroke:#181818;stroke-width:1;"/><path d="M773.9688,1131.6406 Q773.3906,1131.9375 772.75,1132.0781 Q772.1094,1132.2344 771.4063,1132.2344 Q768.9063,1132.2344 767.5781,1130.5938 Q766.2656,1128.9375 766.2656,1125.8125 Q766.2656,1122.6875 767.5781,1121.0313 Q768.9063,1119.375 771.4063,1119.375 Q772.1094,1119.375 772.75,1119.5313 Q773.4063,1119.6875 773.9688,1119.9844 L773.9688,1122.7031 Q773.3438,1122.125 772.75,1121.8594 Q772.1563,1121.5781 771.5313,1121.5781 Q770.1875,1121.5781 769.5,1122.6563 Q768.8125,1123.7188 768.8125,1125.8125 Q768.8125,1127.9063 769.5,1128.9844 Q770.1875,1130.0469 771.5313,1130.0469 Q772.1563,1130.0469 772.75,1129.7813 Q773.3438,1129.5 773.9688,1128.9219 L773.9688,1131.6406 Z " fill="#000000"/><text fill="#000000" font-family="sans-serif" font-size="14" lengthAdjust="spacing" textLength="141.832" x="785" y="1130.8467">AdditionalProperties</text><line style="stroke:#181818;stroke-width:0.5;" x1="757" x2="928.832" y1="1142" y2="1142"/><ellipse cx="767" cy="1155.6484" fill="none" rx="3" ry="3" style="stroke:#038048;stroke-width:1;"/><text fill="#000000" font-family="sans-serif" font-size="14" lengthAdjust="spacing" textLength="58.9805" x="776" y="1158.9951">type: str</text><line style="stroke:#181818;stroke-width:0.5;" x1="757" x2="928.832" y1="1166.2969" y2="1166.2969"/></g><!--class AnyOfItem3--><g id="elem_AnyOfItem3"><rect codeLine="91" fill="#F1F1F1" height="80.5938" id="AnyOfItem3" rx="2.5" ry="2.5" style="stroke:#181818;stroke-width:0.5;" width="325.2773" x="680.5" y="969"/><ellipse cx="797.1587" cy="985" fill="#ADD1B2" rx="11" ry="11" style="stroke:#181818;stroke-width:1;"/><path d="M800.1274,990.6406 Q799.5493,990.9375 798.9087,991.0781 Q798.2681,991.2344 797.5649,991.2344 Q795.0649,991.2344 793.7368,989.5938 Q792.4243,987.9375 792.4243,984.8125 Q792.4243,981.6875 793.7368,980.0313 Q795.0649,978.375 797.5649,978.375 Q798.2681,978.375 798.9087,978.5313 Q799.5649,978.6875 800.1274,978.9844 L800.1274,981.7031 Q799.5024,981.125 798.9087,980.8594 Q798.3149,980.5781 797.6899,980.5781 Q796.3462,980.5781 795.6587,981.6563 Q794.9712,982.7188 794.9712,984.8125 Q794.9712,986.9063 795.6587,987.9844 Q796.3462,989.0469 797.6899,989.0469 Q798.3149,989.0469 798.9087,988.7813 Q799.5024,988.5 800.1274,987.9219 L800.1274,990.6406 Z " fill="#000000"/><text fill="#000000" font-family="sans-serif" font-size="14" lengthAdjust="spacing" textLength="83.46" x="817.6587" y="989.8467">AnyOfItem3</text><line style="stroke:#181818;stroke-width:0.5;" x1="681.5" x2="1004.7773" y1="1001" y2="1001"/><ellipse cx="691.5" cy="1014.6484" fill="none" rx="3" ry="3" style="stroke:#038048;stroke-width:1;"/><text fill="#000000" font-family="sans-serif" font-size="14" lengthAdjust="spacing" textLength="299.2773" x="700.5" y="1017.9951">additional_properties: AdditionalProperties</text><ellipse cx="691.5" cy="1030.9453" fill="none" rx="3" ry="3" style="stroke:#038048;stroke-width:1;"/><text fill="#000000" font-family="sans-serif" font-size="14" lengthAdjust="spacing" textLength="58.9805" x="700.5" y="1034.292">type: str</text><line style="stroke:#181818;stroke-width:0.5;" x1="681.5" x2="1004.7773" y1="1041.5938" y2="1041.5938"/></g><!--class Errors--><g id="elem_Errors"><rect codeLine="96" fill="#F1F1F1" height="96.8906" id="Errors" rx="2.5" ry="2.5" style="stroke:#181818;stroke-width:0.5;" width="200.2549" x="743" y="804"/><ellipse cx="817.8911" cy="820" fill="#ADD1B2" rx="11" ry="11" style="stroke:#181818;stroke-width:1;"/><path d="M820.8599,825.6406 Q820.2817,825.9375 819.6411,826.0781 Q819.0005,826.2344 818.2974,826.2344 Q815.7974,826.2344 814.4692,824.5938 Q813.1567,822.9375 813.1567,819.8125 Q813.1567,816.6875 814.4692,815.0313 Q815.7974,813.375 818.2974,813.375 Q819.0005,813.375 819.6411,813.5313 Q820.2974,813.6875 820.8599,813.9844 L820.8599,816.7031 Q820.2349,816.125 819.6411,815.8594 Q819.0474,815.5781 818.4224,815.5781 Q817.0786,815.5781 816.3911,816.6563 Q815.7036,817.7188 815.7036,819.8125 Q815.7036,821.9063 816.3911,822.9844 Q817.0786,824.0469 818.4224,824.0469 Q819.0474,824.0469 819.6411,823.7813 Q820.2349,823.5 820.8599,822.9219 L820.8599,825.6406 Z " fill="#000000"/><text fill="#000000" font-family="sans-serif" font-size="14" lengthAdjust="spacing" textLength="41.9727" x="838.3911" y="824.8467">Errors</text><line style="stroke:#181818;stroke-width:0.5;" x1="744" x2="942.2549" y1="836" y2="836"/><ellipse cx="754" cy="849.6484" fill="none" rx="3" ry="3" style="stroke:#038048;stroke-width:1;"/><text fill="#000000" font-family="sans-serif" font-size="14" lengthAdjust="spacing" textLength="174.2549" x="763" y="852.9951">any_of: List[AnyOfItem3]</text><ellipse cx="754" cy="865.9453" fill="none" rx="3" ry="3" style="stroke:#038048;stroke-width:1;"/><text fill="#000000" font-family="sans-serif" font-size="14" lengthAdjust="spacing" textLength="94.9512" x="763" y="869.292">default: None</text><ellipse cx="754" cy="882.2422" fill="none" rx="3" ry="3" style="stroke:#038048;stroke-width:1;"/><text fill="#000000" font-family="sans-serif" font-size="14" lengthAdjust="spacing" textLength="55.0771" x="763" y="885.5889">title: str</text><line style="stroke:#181818;stroke-width:0.5;" x1="744" x2="942.2549" y1="892.8906" y2="892.8906"/></g><!--class Properties3--><g id="elem_Properties3"><rect codeLine="102" fill="#F1F1F1" height="178.375" id="Properties3" rx="2.5" ry="2.5" style="stroke:#181818;stroke-width:0.5;" width="328.1621" x="781" y="558"/><ellipse cx="900.7246" cy="574" fill="#ADD1B2" rx="11" ry="11" style="stroke:#181818;stroke-width:1;"/><path d="M903.6934,579.6406 Q903.1152,579.9375 902.4746,580.0781 Q901.834,580.2344 901.1309,580.2344 Q898.6309,580.2344 897.3027,578.5938 Q895.9902,576.9375 895.9902,573.8125 Q895.9902,570.6875 897.3027,569.0313 Q898.6309,567.375 901.1309,567.375 Q901.834,567.375 902.4746,567.5313 Q903.1309,567.6875 903.6934,567.9844 L903.6934,570.7031 Q903.0684,570.125 902.4746,569.8594 Q901.8809,569.5781 901.2559,569.5781 Q899.9121,569.5781 899.2246,570.6563 Q898.5371,571.7188 898.5371,573.8125 Q898.5371,575.9063 899.2246,576.9844 Q899.9121,578.0469 901.2559,578.0469 Q901.8809,578.0469 902.4746,577.7813 Q903.0684,577.5 903.6934,576.9219 L903.6934,579.6406 Z " fill="#000000"/><text fill="#000000" font-family="sans-serif" font-size="14" lengthAdjust="spacing" textLength="80.2129" x="921.2246" y="578.8467">Properties3</text><line style="stroke:#181818;stroke-width:0.5;" x1="782" x2="1108.1621" y1="590" y2="590"/><ellipse cx="792" cy="603.6484" fill="none" rx="3" ry="3" style="stroke:#038048;stroke-width:1;"/><text fill="#000000" font-family="sans-serif" font-size="14" lengthAdjust="spacing" textLength="77.5195" x="801" y="606.9951">valid: Valid</text><ellipse cx="792" cy="619.9453" fill="none" rx="3" ry="3" style="stroke:#038048;stroke-width:1;"/><text fill="#000000" font-family="sans-serif" font-size="14" lengthAdjust="spacing" textLength="226.8848" x="801" y="623.292">evaluation_path: EvaluationPath</text><ellipse cx="792" cy="636.2422" fill="none" rx="3" ry="3" style="stroke:#038048;stroke-width:1;"/><text fill="#000000" font-family="sans-serif" font-size="14" lengthAdjust="spacing" textLength="242.1563" x="801" y="639.5889">schema_location: SchemaLocation</text><ellipse cx="792" cy="652.5391" fill="none" rx="3" ry="3" style="stroke:#038048;stroke-width:1;"/><text fill="#000000" font-family="sans-serif" font-size="14" lengthAdjust="spacing" textLength="250.0313" x="801" y="655.8857">instance_location: InstanceLocation</text><ellipse cx="792" cy="668.8359" fill="none" rx="3" ry="3" style="stroke:#038048;stroke-width:1;"/><text fill="#000000" font-family="sans-serif" font-size="14" lengthAdjust="spacing" textLength="113.251" x="801" y="672.1826">details: Details1</text><ellipse cx="792" cy="685.1328" fill="none" rx="3" ry="3" style="stroke:#038048;stroke-width:1;"/><text fill="#000000" font-family="sans-serif" font-size="14" lengthAdjust="spacing" textLength="176.3057" x="801" y="688.4795">annotations: Annotations</text><ellipse cx="792" cy="701.4297" fill="none" rx="3" ry="3" style="stroke:#038048;stroke-width:1;"/><text fill="#000000" font-family="sans-serif" font-size="14" lengthAdjust="spacing" textLength="302.1621" x="801" y="704.7764">dropped_annotations: DroppedAnnotations</text><ellipse cx="792" cy="717.7266" fill="none" rx="3" ry="3" style="stroke:#038048;stroke-width:1;"/><text fill="#000000" font-family="sans-serif" font-size="14" lengthAdjust="spacing" textLength="92.8799" x="801" y="721.0732">errors: Errors</text><line style="stroke:#181818;stroke-width:0.5;" x1="782" x2="1108.1621" y1="728.375" y2="728.375"/></g><!--class OutputUnit--><g id="elem_OutputUnit"><rect codeLine="113" fill="#F1F1F1" height="113.1875" id="OutputUnit" rx="2.5" ry="2.5" style="stroke:#181818;stroke-width:0.5;" width="187.1299" x="851.5" y="385"/><ellipse cx="902.25" cy="401" fill="#ADD1B2" rx="11" ry="11" style="stroke:#181818;stroke-width:1;"/><path d="M905.2188,406.6406 Q904.6406,406.9375 904,407.0781 Q903.3594,407.2344 902.6563,407.2344 Q900.1563,407.2344 898.8281,405.5938 Q897.5156,403.9375 897.5156,400.8125 Q897.5156,397.6875 898.8281,396.0313 Q900.1563,394.375 902.6563,394.375 Q903.3594,394.375 904,394.5313 Q904.6563,394.6875 905.2188,394.9844 L905.2188,397.7031 Q904.5938,397.125 904,396.8594 Q903.4063,396.5781 902.7813,396.5781 Q901.4375,396.5781 900.75,397.6563 Q900.0625,398.7188 900.0625,400.8125 Q900.0625,402.9063 900.75,403.9844 Q901.4375,405.0469 902.7813,405.0469 Q903.4063,405.0469 904,404.7813 Q904.5938,404.5 905.2188,403.9219 L905.2188,406.6406 Z " fill="#000000"/><text fill="#000000" font-family="sans-serif" font-size="14" lengthAdjust="spacing" textLength="77.1299" x="922.75" y="405.8467">OutputUnit</text><line style="stroke:#181818;stroke-width:0.5;" x1="852.5" x2="1037.6299" y1="417" y2="417"/><ellipse cx="862.5" cy="430.6484" fill="none" rx="3" ry="3" style="stroke:#038048;stroke-width:1;"/><text fill="#000000" font-family="sans-serif" font-size="14" lengthAdjust="spacing" textLength="161.1299" x="871.5" y="433.9951">properties: Properties3</text><ellipse cx="862.5" cy="446.9453" fill="none" rx="3" ry="3" style="stroke:#038048;stroke-width:1;"/><text fill="#000000" font-family="sans-serif" font-size="14" lengthAdjust="spacing" textLength="122.377" x="871.5" y="450.292">required: List[str]</text><ellipse cx="862.5" cy="463.2422" fill="none" rx="3" ry="3" style="stroke:#038048;stroke-width:1;"/><text fill="#000000" font-family="sans-serif" font-size="14" lengthAdjust="spacing" textLength="55.0771" x="871.5" y="466.5889">title: str</text><ellipse cx="862.5" cy="479.5391" fill="none" rx="3" ry="3" style="stroke:#038048;stroke-width:1;"/><text fill="#000000" font-family="sans-serif" font-size="14" lengthAdjust="spacing" textLength="58.9805" x="871.5" y="482.8857">type: str</text><line style="stroke:#181818;stroke-width:0.5;" x1="852.5" x2="1037.6299" y1="490.1875" y2="490.1875"/></g><!--class Items--><g id="elem_Items"><rect codeLine="120" fill="#F1F1F1" height="64.2969" id="Items" rx="2.5" ry="2.5" style="stroke:#181818;stroke-width:0.5;" width="110.2119" x="1748" y="977.5"/><ellipse cx="1780.572" cy="993.5" fill="#ADD1B2" rx="11" ry="11" style="stroke:#181818;stroke-width:1;"/><path d="M1783.5407,999.1406 Q1782.9626,999.4375 1782.322,999.5781 Q1781.6813,999.7344 1780.9782,999.7344 Q1778.4782,999.7344 1777.1501,998.0938 Q1775.8376,996.4375 1775.8376,993.3125 Q1775.8376,990.1875 1777.1501,988.5313 Q1778.4782,986.875 1780.9782,986.875 Q1781.6813,986.875 1782.322,987.0313 Q1782.9782,987.1875 1783.5407,987.4844 L1783.5407,990.2031 Q1782.9157,989.625 1782.322,989.3594 Q1781.7282,989.0781 1781.1032,989.0781 Q1779.7595,989.0781 1779.072,990.1563 Q1778.3845,991.2188 1778.3845,993.3125 Q1778.3845,995.4063 1779.072,996.4844 Q1779.7595,997.5469 1781.1032,997.5469 Q1781.7282,997.5469 1782.322,997.2813 Q1782.9157,997 1783.5407,996.4219 L1783.5407,999.1406 Z " fill="#000000"/><text fill="#000000" font-family="sans-serif" font-size="14" lengthAdjust="spacing" textLength="39.1631" x="1798.4769" y="998.3467">Items</text><line style="stroke:#181818;stroke-width:0.5;" x1="1749" x2="1857.2119" y1="1009.5" y2="1009.5"/><ellipse cx="1759" cy="1023.1484" fill="none" rx="3" ry="3" style="stroke:#038048;stroke-width:1;"/><text fill="#000000" font-family="sans-serif" font-size="14" lengthAdjust="spacing" textLength="84.2119" x="1768" y="1026.4951">field_ref: str</text><line style="stroke:#181818;stroke-width:0.5;" x1="1749" x2="1857.2119" y1="1033.7969" y2="1033.7969"/></g><!--class Root1--><g id="elem_Root1"><rect codeLine="124" fill="#F1F1F1" height="96.8906" id="Root1" rx="2.5" ry="2.5" style="stroke:#181818;stroke-width:0.5;" width="113.2539" x="1746.5" y="804"/><ellipse cx="1779.4996" cy="820" fill="#ADD1B2" rx="11" ry="11" style="stroke:#181818;stroke-width:1;"/><path d="M1782.4683,825.6406 Q1781.8902,825.9375 1781.2496,826.0781 Q1780.6089,826.2344 1779.9058,826.2344 Q1777.4058,826.2344 1776.0777,824.5938 Q1774.7652,822.9375 1774.7652,819.8125 Q1774.7652,816.6875 1776.0777,815.0313 Q1777.4058,813.375 1779.9058,813.375 Q1780.6089,813.375 1781.2496,813.5313 Q1781.9058,813.6875 1782.4683,813.9844 L1782.4683,816.7031 Q1781.8433,816.125 1781.2496,815.8594 Q1780.6558,815.5781 1780.0308,815.5781 Q1778.6871,815.5781 1777.9996,816.6563 Q1777.3121,817.7188 1777.3121,819.8125 Q1777.3121,821.9063 1777.9996,822.9844 Q1778.6871,824.0469 1780.0308,824.0469 Q1780.6558,824.0469 1781.2496,823.7813 Q1781.8433,823.5 1782.4683,822.9219 L1782.4683,825.6406 Z " fill="#000000"/><text fill="#000000" font-family="sans-serif" font-size="14" lengthAdjust="spacing" textLength="41.2549" x="1797.4995" y="824.8467">Root1</text><line style="stroke:#181818;stroke-width:0.5;" x1="1747.5" x2="1858.7539" y1="836" y2="836"/><ellipse cx="1757.5" cy="849.6484" fill="none" rx="3" ry="3" style="stroke:#038048;stroke-width:1;"/><text fill="#000000" font-family="sans-serif" font-size="14" lengthAdjust="spacing" textLength="87.2539" x="1766.5" y="852.9951">items: Items</text><ellipse cx="1757.5" cy="865.9453" fill="none" rx="3" ry="3" style="stroke:#038048;stroke-width:1;"/><text fill="#000000" font-family="sans-serif" font-size="14" lengthAdjust="spacing" textLength="55.0771" x="1766.5" y="869.292">title: str</text><ellipse cx="1757.5" cy="882.2422" fill="none" rx="3" ry="3" style="stroke:#038048;stroke-width:1;"/><text fill="#000000" font-family="sans-serif" font-size="14" lengthAdjust="spacing" textLength="58.9805" x="1766.5" y="885.5889">type: str</text><line style="stroke:#181818;stroke-width:0.5;" x1="1747.5" x2="1858.7539" y1="892.8906" y2="892.8906"/></g><!--class Properties4--><g id="elem_Properties4"><rect codeLine="130" fill="#F1F1F1" height="64.2969" id="Properties4" rx="2.5" ry="2.5" style="stroke:#181818;stroke-width:0.5;" width="112.2129" x="1205" y="615"/><ellipse cx="1220" cy="631" fill="#ADD1B2" rx="11" ry="11" style="stroke:#181818;stroke-width:1;"/><path d="M1222.9688,636.6406 Q1222.3906,636.9375 1221.75,637.0781 Q1221.1094,637.2344 1220.4063,637.2344 Q1217.9063,637.2344 1216.5781,635.5938 Q1215.2656,633.9375 1215.2656,630.8125 Q1215.2656,627.6875 1216.5781,626.0313 Q1217.9063,624.375 1220.4063,624.375 Q1221.1094,624.375 1221.75,624.5313 Q1222.4063,624.6875 1222.9688,624.9844 L1222.9688,627.7031 Q1222.3438,627.125 1221.75,626.8594 Q1221.1563,626.5781 1220.5313,626.5781 Q1219.1875,626.5781 1218.5,627.6563 Q1217.8125,628.7188 1217.8125,630.8125 Q1217.8125,632.9063 1218.5,633.9844 Q1219.1875,635.0469 1220.5313,635.0469 Q1221.1563,635.0469 1221.75,634.7813 Q1222.3438,634.5 1222.9688,633.9219 L1222.9688,636.6406 Z " fill="#000000"/><text fill="#000000" font-family="sans-serif" font-size="14" lengthAdjust="spacing" textLength="80.2129" x="1234" y="635.8467">Properties4</text><line style="stroke:#181818;stroke-width:0.5;" x1="1206" x2="1316.2129" y1="647" y2="647"/><ellipse cx="1216" cy="660.6484" fill="none" rx="3" ry="3" style="stroke:#038048;stroke-width:1;"/><text fill="#000000" font-family="sans-serif" font-size="14" lengthAdjust="spacing" textLength="78.7979" x="1225" y="663.9951">root: Root1</text><line style="stroke:#181818;stroke-width:0.5;" x1="1206" x2="1316.2129" y1="671.2969" y2="671.2969"/></g><!--class OutputUnitArray--><g id="elem_OutputUnitArray"><rect codeLine="134" fill="#F1F1F1" height="113.1875" id="OutputUnitArray" rx="2.5" ry="2.5" style="stroke:#181818;stroke-width:0.5;" width="187.1299" x="1073.5" y="385"/><ellipse cx="1106.5211" cy="401" fill="#ADD1B2" rx="11" ry="11" style="stroke:#181818;stroke-width:1;"/><path d="M1109.4898,406.6406 Q1108.9117,406.9375 1108.2711,407.0781 Q1107.6305,407.2344 1106.9273,407.2344 Q1104.4273,407.2344 1103.0992,405.5938 Q1101.7867,403.9375 1101.7867,400.8125 Q1101.7867,397.6875 1103.0992,396.0313 Q1104.4273,394.375 1106.9273,394.375 Q1107.6305,394.375 1108.2711,394.5313 Q1108.9273,394.6875 1109.4898,394.9844 L1109.4898,397.7031 Q1108.8648,397.125 1108.2711,396.8594 Q1107.6773,396.5781 1107.0523,396.5781 Q1105.7086,396.5781 1105.0211,397.6563 Q1104.3336,398.7188 1104.3336,400.8125 Q1104.3336,402.9063 1105.0211,403.9844 Q1105.7086,405.0469 1107.0523,405.0469 Q1107.6773,405.0469 1108.2711,404.7813 Q1108.8648,404.5 1109.4898,403.9219 L1109.4898,406.6406 Z " fill="#000000"/><text fill="#000000" font-family="sans-serif" font-size="14" lengthAdjust="spacing" textLength="115.083" x="1124.5258" y="405.8467">OutputUnitArray</text><line style="stroke:#181818;stroke-width:0.5;" x1="1074.5" x2="1259.6299" y1="417" y2="417"/><ellipse cx="1084.5" cy="430.6484" fill="none" rx="3" ry="3" style="stroke:#038048;stroke-width:1;"/><text fill="#000000" font-family="sans-serif" font-size="14" lengthAdjust="spacing" textLength="161.1299" x="1093.5" y="433.9951">properties: Properties4</text><ellipse cx="1084.5" cy="446.9453" fill="none" rx="3" ry="3" style="stroke:#038048;stroke-width:1;"/><text fill="#000000" font-family="sans-serif" font-size="14" lengthAdjust="spacing" textLength="122.377" x="1093.5" y="450.292">required: List[str]</text><ellipse cx="1084.5" cy="463.2422" fill="none" rx="3" ry="3" style="stroke:#038048;stroke-width:1;"/><text fill="#000000" font-family="sans-serif" font-size="14" lengthAdjust="spacing" textLength="55.0771" x="1093.5" y="466.5889">title: str</text><ellipse cx="1084.5" cy="479.5391" fill="none" rx="3" ry="3" style="stroke:#038048;stroke-width:1;"/><text fill="#000000" font-family="sans-serif" font-size="14" lengthAdjust="spacing" textLength="58.9805" x="1093.5" y="482.8857">type: str</text><line style="stroke:#181818;stroke-width:0.5;" x1="1074.5" x2="1259.6299" y1="490.1875" y2="490.1875"/></g><!--class FieldDefs--><g id="elem_FieldDefs"><rect codeLine="141" fill="#F1F1F1" height="129.4844" id="FieldDefs" rx="2.5" ry="2.5" style="stroke:#181818;stroke-width:0.5;" width="274.5068" x="918.5" y="196"/><ellipse cx="1019.0293" cy="212" fill="#ADD1B2" rx="11" ry="11" style="stroke:#181818;stroke-width:1;"/><path d="M1021.998,217.6406 Q1021.4199,217.9375 1020.7793,218.0781 Q1020.1387,218.2344 1019.4355,218.2344 Q1016.9355,218.2344 1015.6074,216.5938 Q1014.2949,214.9375 1014.2949,211.8125 Q1014.2949,208.6875 1015.6074,207.0313 Q1016.9355,205.375 1019.4355,205.375 Q1020.1387,205.375 1020.7793,205.5313 Q1021.4355,205.6875 1021.998,205.9844 L1021.998,208.7031 Q1021.373,208.125 1020.7793,207.8594 Q1020.1855,207.5781 1019.5605,207.5781 Q1018.2168,207.5781 1017.5293,208.6563 Q1016.8418,209.7188 1016.8418,211.8125 Q1016.8418,213.9063 1017.5293,214.9844 Q1018.2168,216.0469 1019.5605,216.0469 Q1020.1855,216.0469 1020.7793,215.7813 Q1021.373,215.5 1021.998,214.9219 L1021.998,217.6406 Z " fill="#000000"/><text fill="#000000" font-family="sans-serif" font-size="14" lengthAdjust="spacing" textLength="64.9482" x="1039.5293" y="216.8467">FieldDefs</text><line style="stroke:#181818;stroke-width:0.5;" x1="919.5" x2="1192.0068" y1="228" y2="228"/><ellipse cx="929.5" cy="241.6484" fill="none" rx="3" ry="3" style="stroke:#038048;stroke-width:1;"/><text fill="#000000" font-family="sans-serif" font-size="14" lengthAdjust="spacing" textLength="64.8594" x="938.5" y="244.9951">flag: Flag</text><ellipse cx="929.5" cy="257.9453" fill="none" rx="3" ry="3" style="stroke:#038048;stroke-width:1;"/><text fill="#000000" font-family="sans-serif" font-size="14" lengthAdjust="spacing" textLength="175.0068" x="938.5" y="261.292">hierarchical: Hierarchical</text><ellipse cx="929.5" cy="274.2422" fill="none" rx="3" ry="3" style="stroke:#038048;stroke-width:1;"/><text fill="#000000" font-family="sans-serif" font-size="14" lengthAdjust="spacing" textLength="146.8291" x="938.5" y="277.5889">list_model: ListModel</text><ellipse cx="929.5" cy="290.5391" fill="none" rx="3" ry="3" style="stroke:#038048;stroke-width:1;"/><text fill="#000000" font-family="sans-serif" font-size="14" lengthAdjust="spacing" textLength="166.5986" x="938.5" y="293.8857">output_unit: OutputUnit</text><ellipse cx="929.5" cy="306.8359" fill="none" rx="3" ry="3" style="stroke:#038048;stroke-width:1;"/><text fill="#000000" font-family="sans-serif" font-size="14" lengthAdjust="spacing" textLength="248.5068" x="938.5" y="310.1826">output_unit_array: OutputUnitArray</text><line style="stroke:#181818;stroke-width:0.5;" x1="919.5" x2="1192.0068" y1="317.4844" y2="317.4844"/></g><!--class AnyOfItem4--><g id="elem_AnyOfItem4"><rect codeLine="149" fill="#F1F1F1" height="64.2969" id="AnyOfItem4" rx="2.5" ry="2.5" style="stroke:#181818;stroke-width:0.5;" width="115.46" x="1560.5" y="615"/><ellipse cx="1575.5" cy="631" fill="#ADD1B2" rx="11" ry="11" style="stroke:#181818;stroke-width:1;"/><path d="M1578.4688,636.6406 Q1577.8906,636.9375 1577.25,637.0781 Q1576.6094,637.2344 1575.9063,637.2344 Q1573.4063,637.2344 1572.0781,635.5938 Q1570.7656,633.9375 1570.7656,630.8125 Q1570.7656,627.6875 1572.0781,626.0313 Q1573.4063,624.375 1575.9063,624.375 Q1576.6094,624.375 1577.25,624.5313 Q1577.9063,624.6875 1578.4688,624.9844 L1578.4688,627.7031 Q1577.8438,627.125 1577.25,626.8594 Q1576.6563,626.5781 1576.0313,626.5781 Q1574.6875,626.5781 1574,627.6563 Q1573.3125,628.7188 1573.3125,630.8125 Q1573.3125,632.9063 1574,633.9844 Q1574.6875,635.0469 1576.0313,635.0469 Q1576.6563,635.0469 1577.25,634.7813 Q1577.8438,634.5 1578.4688,633.9219 L1578.4688,636.6406 Z " fill="#000000"/><text fill="#000000" font-family="sans-serif" font-size="14" lengthAdjust="spacing" textLength="83.46" x="1589.5" y="635.8467">AnyOfItem4</text><line style="stroke:#181818;stroke-width:0.5;" x1="1561.5" x2="1674.96" y1="647" y2="647"/><ellipse cx="1571.5" cy="660.6484" fill="none" rx="3" ry="3" style="stroke:#038048;stroke-width:1;"/><text fill="#000000" font-family="sans-serif" font-size="14" lengthAdjust="spacing" textLength="84.2119" x="1580.5" y="663.9951">field_ref: str</text><line style="stroke:#181818;stroke-width:0.5;" x1="1561.5" x2="1674.96" y1="671.2969" y2="671.2969"/></g><!--class Root2--><g id="elem_Root2"><rect codeLine="153" fill="#F1F1F1" height="96.8906" id="Root2" rx="2.5" ry="2.5" style="stroke:#181818;stroke-width:0.5;" width="200.2549" x="1518" y="393"/><ellipse cx="1593.25" cy="409" fill="#ADD1B2" rx="11" ry="11" style="stroke:#181818;stroke-width:1;"/><path d="M1596.2188,414.6406 Q1595.6406,414.9375 1595,415.0781 Q1594.3594,415.2344 1593.6563,415.2344 Q1591.1563,415.2344 1589.8281,413.5938 Q1588.5156,411.9375 1588.5156,408.8125 Q1588.5156,405.6875 1589.8281,404.0313 Q1591.1563,402.375 1593.6563,402.375 Q1594.3594,402.375 1595,402.5313 Q1595.6563,402.6875 1596.2188,402.9844 L1596.2188,405.7031 Q1595.5938,405.125 1595,404.8594 Q1594.4063,404.5781 1593.7813,404.5781 Q1592.4375,404.5781 1591.75,405.6563 Q1591.0625,406.7188 1591.0625,408.8125 Q1591.0625,410.9063 1591.75,411.9844 Q1592.4375,413.0469 1593.7813,413.0469 Q1594.4063,413.0469 1595,412.7813 Q1595.5938,412.5 1596.2188,411.9219 L1596.2188,414.6406 Z " fill="#000000"/><text fill="#000000" font-family="sans-serif" font-size="14" lengthAdjust="spacing" textLength="41.2549" x="1613.75" y="413.8467">Root2</text><line style="stroke:#181818;stroke-width:0.5;" x1="1519" x2="1717.2549" y1="425" y2="425"/><ellipse cx="1529" cy="438.6484" fill="none" rx="3" ry="3" style="stroke:#038048;stroke-width:1;"/><text fill="#000000" font-family="sans-serif" font-size="14" lengthAdjust="spacing" textLength="174.2549" x="1538" y="441.9951">any_of: List[AnyOfItem4]</text><ellipse cx="1529" cy="454.9453" fill="none" rx="3" ry="3" style="stroke:#038048;stroke-width:1;"/><text fill="#000000" font-family="sans-serif" font-size="14" lengthAdjust="spacing" textLength="105.5469" x="1538" y="458.292">description: str</text><ellipse cx="1529" cy="471.2422" fill="none" rx="3" ry="3" style="stroke:#038048;stroke-width:1;"/><text fill="#000000" font-family="sans-serif" font-size="14" lengthAdjust="spacing" textLength="55.0771" x="1538" y="474.5889">title: str</text><line style="stroke:#181818;stroke-width:0.5;" x1="1519" x2="1717.2549" y1="481.8906" y2="481.8906"/></g><!--class Properties5--><g id="elem_Properties5"><rect codeLine="159" fill="#F1F1F1" height="64.2969" id="Properties5" rx="2.5" ry="2.5" style="stroke:#181818;stroke-width:0.5;" width="112.2129" x="1395" y="228.5"/><ellipse cx="1410" cy="244.5" fill="#ADD1B2" rx="11" ry="11" style="stroke:#181818;stroke-width:1;"/><path d="M1412.9688,250.1406 Q1412.3906,250.4375 1411.75,250.5781 Q1411.1094,250.7344 1410.4063,250.7344 Q1407.9063,250.7344 1406.5781,249.0938 Q1405.2656,247.4375 1405.2656,244.3125 Q1405.2656,241.1875 1406.5781,239.5313 Q1407.9063,237.875 1410.4063,237.875 Q1411.1094,237.875 1411.75,238.0313 Q1412.4063,238.1875 1412.9688,238.4844 L1412.9688,241.2031 Q1412.3438,240.625 1411.75,240.3594 Q1411.1563,240.0781 1410.5313,240.0781 Q1409.1875,240.0781 1408.5,241.1563 Q1407.8125,242.2188 1407.8125,244.3125 Q1407.8125,246.4063 1408.5,247.4844 Q1409.1875,248.5469 1410.5313,248.5469 Q1411.1563,248.5469 1411.75,248.2813 Q1412.3438,248 1412.9688,247.4219 L1412.9688,250.1406 Z " fill="#000000"/><text fill="#000000" font-family="sans-serif" font-size="14" lengthAdjust="spacing" textLength="80.2129" x="1424" y="249.3467">Properties5</text><line style="stroke:#181818;stroke-width:0.5;" x1="1396" x2="1506.2129" y1="260.5" y2="260.5"/><ellipse cx="1406" cy="274.1484" fill="none" rx="3" ry="3" style="stroke:#038048;stroke-width:1;"/><text fill="#000000" font-family="sans-serif" font-size="14" lengthAdjust="spacing" textLength="78.7979" x="1415" y="277.4951">root: Root2</text><line style="stroke:#181818;stroke-width:0.5;" x1="1396" x2="1506.2129" y1="284.7969" y2="284.7969"/></g><!--class Model--><g id="elem_Model"><rect codeLine="163" fill="#F1F1F1" height="129.4844" id="Model" rx="2.5" ry="2.5" style="stroke:#181818;stroke-width:0.5;" width="187.1299" x="1076.5" y="7"/><ellipse cx="1144.7979" cy="23" fill="#ADD1B2" rx="11" ry="11" style="stroke:#181818;stroke-width:1;"/><path d="M1147.7666,28.6406 Q1147.1885,28.9375 1146.5479,29.0781 Q1145.9072,29.2344 1145.2041,29.2344 Q1142.7041,29.2344 1141.376,27.5938 Q1140.0635,25.9375 1140.0635,22.8125 Q1140.0635,19.6875 1141.376,18.0313 Q1142.7041,16.375 1145.2041,16.375 Q1145.9072,16.375 1146.5479,16.5313 Q1147.2041,16.6875 1147.7666,16.9844 L1147.7666,19.7031 Q1147.1416,19.125 1146.5479,18.8594 Q1145.9541,18.5781 1145.3291,18.5781 Q1143.9854,18.5781 1143.2979,19.6563 Q1142.6104,20.7188 1142.6104,22.8125 Q1142.6104,24.9063 1143.2979,25.9844 Q1143.9854,27.0469 1145.3291,27.0469 Q1145.9541,27.0469 1146.5479,26.7813 Q1147.1416,26.5 1147.7666,25.9219 L1147.7666,28.6406 Z " fill="#000000"/><text fill="#000000" font-family="sans-serif" font-size="14" lengthAdjust="spacing" textLength="42.0342" x="1165.2979" y="27.8467">Model</text><line style="stroke:#181818;stroke-width:0.5;" x1="1077.5" x2="1262.6299" y1="39" y2="39"/><ellipse cx="1087.5" cy="52.6484" fill="none" rx="3" ry="3" style="stroke:#038048;stroke-width:1;"/><text fill="#000000" font-family="sans-serif" font-size="14" lengthAdjust="spacing" textLength="141.0459" x="1096.5" y="55.9951">field_defs: FieldDefs</text><ellipse cx="1087.5" cy="68.9453" fill="none" rx="3" ry="3" style="stroke:#038048;stroke-width:1;"/><text fill="#000000" font-family="sans-serif" font-size="14" lengthAdjust="spacing" textLength="161.1299" x="1096.5" y="72.292">properties: Properties5</text><ellipse cx="1087.5" cy="85.2422" fill="none" rx="3" ry="3" style="stroke:#038048;stroke-width:1;"/><text fill="#000000" font-family="sans-serif" font-size="14" lengthAdjust="spacing" textLength="122.377" x="1096.5" y="88.5889">required: List[str]</text><ellipse cx="1087.5" cy="101.5391" fill="none" rx="3" ry="3" style="stroke:#038048;stroke-width:1;"/><text fill="#000000" font-family="sans-serif" font-size="14" lengthAdjust="spacing" textLength="55.0771" x="1096.5" y="104.8857">title: str</text><ellipse cx="1087.5" cy="117.8359" fill="none" rx="3" ry="3" style="stroke:#038048;stroke-width:1;"/><text fill="#000000" font-family="sans-serif" font-size="14" lengthAdjust="spacing" textLength="58.9805" x="1096.5" y="121.1826">type: str</text><line style="stroke:#181818;stroke-width:0.5;" x1="1077.5" x2="1262.6299" y1="128.4844" y2="128.4844"/></g><!--class AnyOfItem1--><g id="elem_AnyOfItem1"><rect fill="#F1F1F1" height="48" id="AnyOfItem1" rx="2.5" ry="2.5" style="stroke:#181818;stroke-width:0.5;" width="115.46" x="423.5" y="985.5"/><ellipse cx="438.5" cy="1001.5" fill="#ADD1B2" rx="11" ry="11" style="stroke:#181818;stroke-width:1;"/><path d="M441.4688,1007.1406 Q440.8906,1007.4375 440.25,1007.5781 Q439.6094,1007.7344 438.9063,1007.7344 Q436.4063,1007.7344 435.0781,1006.0938 Q433.7656,1004.4375 433.7656,1001.3125 Q433.7656,998.1875 435.0781,996.5313 Q436.4063,994.875 438.9063,994.875 Q439.6094,994.875 440.25,995.0313 Q440.9063,995.1875 441.4688,995.4844 L441.4688,998.2031 Q440.8438,997.625 440.25,997.3594 Q439.6563,997.0781 439.0313,997.0781 Q437.6875,997.0781 437,998.1563 Q436.3125,999.2188 436.3125,1001.3125 Q436.3125,1003.4063 437,1004.4844 Q437.6875,1005.5469 439.0313,1005.5469 Q439.6563,1005.5469 440.25,1005.2813 Q440.8438,1005 441.4688,1004.4219 L441.4688,1007.1406 Z " fill="#000000"/><text fill="#000000" font-family="sans-serif" font-size="14" lengthAdjust="spacing" textLength="83.46" x="452.5" y="1006.3467">AnyOfItem1</text><line style="stroke:#181818;stroke-width:0.5;" x1="424.5" x2="537.96" y1="1017.5" y2="1017.5"/><line style="stroke:#181818;stroke-width:0.5;" x1="424.5" x2="537.96" y1="1025.5" y2="1025.5"/></g><!--link Properties to Valid--><g id="link_Properties_Valid"><path codeLine="171" d="M552.7,663.78 C481.77,686.56 352.69,732.93 255,796 C247.85,800.62 254.4137,794.4024 247.7437,800.1224 " fill="none" id="Properties-to-Valid" style="stroke:#181818;stroke-width:1;"/><polygon fill="none" points="234.08,811.84,251.6496,804.677,243.8379,795.5678,234.08,811.84" style="stroke:#181818;stroke-width:1;"/></g><!--link Flag to Properties--><g id="link_Flag_Properties"><path codeLine="172" d="M649.33,498.11 C638.08,535.65 628.8102,566.5785 619.5202,597.5585 " fill="none" id="Flag-to-Properties" style="stroke:#181818;stroke-width:1;"/><polygon fill="none" points="614.35,614.8,625.2674,599.2819,613.7731,595.8351,614.35,614.8" style="stroke:#181818;stroke-width:1;"/></g><!--link Properties1 to Root--><g id="link_Properties1_Root"><path codeLine="173" d="M1460.65,679.22 C1482.13,698.59 1512.15,722.31 1543,736 C1680.86,797.16 1738.91,735.34 1877,796 C1890.85,802.08 1890.3272,800.1553 1901.9872,809.3353 " fill="none" id="Properties1-to-Root" style="stroke:#181818;stroke-width:1;"/><polygon fill="none" points="1916.13,820.47,1905.6988,804.621,1898.2756,814.0495,1916.13,820.47" style="stroke:#181818;stroke-width:1;"/></g><!--link Hierarchical to Properties1--><g id="link_Hierarchical_Properties1"><path codeLine="174" d="M1399.93,498.11 C1407.31,535.65 1413.308,566.158 1419.398,597.138 " fill="none" id="Hierarchical-to-Properties1" style="stroke:#181818;stroke-width:1;"/><polygon fill="none" points="1422.87,614.8,1425.2854,595.9807,1413.5107,598.2953,1422.87,614.8" style="stroke:#181818;stroke-width:1;"/></g><!--link Properties2 to Valid--><g id="link_Properties2_Valid"><path codeLine="175" d="M195,687.72 C195,723.58 195,758.05 195,793.88 " fill="none" id="Properties2-to-Valid" style="stroke:#181818;stroke-width:1;"/><polygon fill="none" points="195,811.88,201,793.88,189,793.88,195,811.88" style="stroke:#181818;stroke-width:1;"/></g><!--link Properties2 to Details--><g id="link_Properties2_Details"><path codeLine="176" d="M169.04,687.72 C143.72,726.47 115.5593,769.5638 92.2993,805.1438 " fill="none" id="Properties2-to-Details" style="stroke:#181818;stroke-width:1;"/><polygon fill="none" points="82.45,820.21,97.3214,808.4269,87.2773,801.8607,82.45,820.21" style="stroke:#181818;stroke-width:1;"/></g><!--link ListModel to Properties2--><g id="link_ListModel_Properties2"><path codeLine="177" d="M346.16,498.11 C311.16,532.35 279.988,562.8537 248.478,593.6737 " fill="none" id="ListModel-to-Properties2" style="stroke:#181818;stroke-width:1;"/><polygon fill="none" points="235.61,606.26,252.6735,597.9631,244.2826,589.3844,235.61,606.26" style="stroke:#181818;stroke-width:1;"/></g><!--link Details1 to AnyOfItem--><g id="link_Details1_AnyOfItem"><path codeLine="178" d="M1616,893.01 C1616,916.24 1616,927.52 1616,950.79 " fill="none" id="Details1-to-AnyOfItem" style="stroke:#181818;stroke-width:1;"/><polygon fill="none" points="1616,968.79,1622,950.79,1610,950.79,1616,968.79" style="stroke:#181818;stroke-width:1;"/></g><!--link Annotations to AnyOfItem1--><g id="link_Annotations_AnyOfItem1"><path codeLine="179" d="M568.86,901.27 C545.97,929.2 529.5134,949.273 511.3934,971.403 " fill="none" id="Annotations-to-AnyOfItem1" style="stroke:#181818;stroke-width:1;"/><polygon fill="none" points="499.99,985.33,516.0358,975.2041,506.7511,967.6018,499.99,985.33" style="stroke:#181818;stroke-width:1;"/></g><!--link DroppedAnnotations to AnyOfItem1--><g id="link_DroppedAnnotations_AnyOfItem1"><path codeLine="180" d="M406.28,901.27 C425.75,929.2 439.154,948.4285 454.564,970.5585 " fill="none" id="DroppedAnnotations-to-AnyOfItem1" style="stroke:#181818;stroke-width:1;"/><polygon fill="none" points="464.85,985.33,459.4878,967.1298,449.6402,973.9871,464.85,985.33" style="stroke:#181818;stroke-width:1;"/></g><!--link AnyOfItem3 to AdditionalProperties--><g id="link_AnyOfItem3_AdditionalProperties"><path codeLine="181" d="M843,1050.01 C843,1069.21 843,1073.96 843,1091.91 " fill="none" id="AnyOfItem3-to-AdditionalProperties" style="stroke:#181818;stroke-width:1;"/><polygon fill="none" points="843,1109.91,849,1091.91,837,1091.91,843,1109.91" style="stroke:#181818;stroke-width:1;"/></g><!--link Errors to AnyOfItem3--><g id="link_Errors_AnyOfItem3"><path codeLine="182" d="M843,901.27 C843,922.97 843,930.34 843,950.96 " fill="none" id="Errors-to-AnyOfItem3" style="stroke:#181818;stroke-width:1;"/><polygon fill="none" points="843,968.96,849,950.96,837,950.96,843,968.96" style="stroke:#181818;stroke-width:1;"/></g><!--link Properties3 to Valid--><g id="link_Properties3_Valid"><path codeLine="183" d="M780.74,706.32 C745.82,717.32 708.93,727.89 674,736 C490.75,778.54 424.85,715.13 255,796 C246.54,800.03 252.2479,794.0887 244.9079,800.2487 " fill="none" id="Properties3-to-Valid" style="stroke:#181818;stroke-width:1;"/><polygon fill="none" points="231.12,811.82,248.765,804.8447,241.0508,795.6528,231.12,811.82" style="stroke:#181818;stroke-width:1;"/></g><!--link Properties3 to EvaluationPath--><g id="link_Properties3_EvaluationPath"><path codeLine="184" d="M989.15,736.07 C1002.39,762.5 1008.1923,774.0893 1019.0323,795.7093 " fill="none" id="Properties3-to-EvaluationPath" style="stroke:#181818;stroke-width:1;"/><polygon fill="none" points="1027.1,811.8,1024.3959,793.02,1013.6687,798.3985,1027.1,811.8" style="stroke:#181818;stroke-width:1;"/></g><!--link Properties3 to SchemaLocation--><g id="link_Properties3_SchemaLocation"><path codeLine="185" d="M1066.18,736.07 C1095,757.02 1110.3489,768.1782 1136.3289,787.0582 " fill="none" id="Properties3-to-SchemaLocation" style="stroke:#181818;stroke-width:1;"/><polygon fill="none" points="1150.89,797.64,1139.8561,782.2045,1132.8016,791.912,1150.89,797.64" style="stroke:#181818;stroke-width:1;"/></g><!--link Properties3 to InstanceLocation--><g id="link_Properties3_InstanceLocation"><path codeLine="186" d="M1109.04,706.78 C1174.73,731.98 1250.46,763.17 1317,796 C1326.78,800.83 1321.2746,797.3744 1331.0846,802.9844 " fill="none" id="Properties3-to-InstanceLocation" style="stroke:#181818;stroke-width:1;"/><polygon fill="none" points="1346.71,811.92,1334.0631,797.7759,1328.106,808.1928,1346.71,811.92" style="stroke:#181818;stroke-width:1;"/></g><!--link Properties3 to Details1--><g id="link_Properties3_Details1"><path codeLine="187" d="M1109.22,711.46 C1135.35,720.4 1162.26,728.93 1188,736 C1325.44,773.72 1367.82,750.85 1503,796 C1516.06,800.36 1513.1875,798.4171 1526.0775,804.3471 " fill="none" id="Properties3-to-Details1" style="stroke:#181818;stroke-width:1;"/><polygon fill="none" points="1542.43,811.87,1528.5851,798.8962,1523.5698,809.7979,1542.43,811.87" style="stroke:#181818;stroke-width:1;"/></g><!--link Properties3 to Annotations--><g id="link_Properties3_Annotations"><path codeLine="188" d="M799.15,736.07 C760.55,759.38 735.738,774.3645 702.208,794.6145 " fill="none" id="Properties3-to-Annotations" style="stroke:#181818;stroke-width:1;"/><polygon fill="none" points="686.8,803.92,705.3099,799.7505,699.1062,789.4785,686.8,803.92" style="stroke:#181818;stroke-width:1;"/></g><!--link Properties3 to DroppedAnnotations--><g id="link_Properties3_DroppedAnnotations"><path codeLine="189" d="M780.68,701.38 C651.11,743.49 491.83,795.27 490,796 C483.73,798.49 493.8519,794.0168 487.4219,796.7968 " fill="none" id="Properties3-to-DroppedAnnotations" style="stroke:#181818;stroke-width:1;"/><polygon fill="none" points="470.9,803.94,489.803,802.3041,485.0409,791.2895,470.9,803.94" style="stroke:#181818;stroke-width:1;"/></g><!--link Properties3 to Errors--><g id="link_Properties3_Errors"><path codeLine="190" d="M900.85,736.07 C889.17,759.38 885.0657,767.5783 874.9157,787.8283 " fill="none" id="Properties3-to-Errors" style="stroke:#181818;stroke-width:1;"/><polygon fill="none" points="866.85,803.92,880.2796,790.5168,869.5518,785.1397,866.85,803.92" style="stroke:#181818;stroke-width:1;"/></g><!--link OutputUnit to Properties3--><g id="link_OutputUnit_Properties3"><path codeLine="191" d="M945,498.11 C945,516.58 945,519.63 945,539.94 " fill="none" id="OutputUnit-to-Properties3" style="stroke:#181818;stroke-width:1;"/><polygon fill="none" points="945,557.94,951,539.94,939,539.94,945,557.94" style="stroke:#181818;stroke-width:1;"/></g><!--link Root1 to Items--><g id="link_Root1_Items"><path codeLine="192" d="M1803,901.27 C1803,926 1803,937.49 1803,959.27 " fill="none" id="Root1-to-Items" style="stroke:#181818;stroke-width:1;"/><polygon fill="none" points="1803,977.27,1809,959.27,1797,959.27,1803,977.27" style="stroke:#181818;stroke-width:1;"/></g><!--link Properties4 to Root1--><g id="link_Properties4_Root1"><path codeLine="193" d="M1285.93,679.05 C1303.42,698.61 1328.51,722.61 1356,736 C1506.95,809.54 1574.44,730.38 1729,796 C1734.91,798.51 1725.3332,792.349 1731.0332,795.759 " fill="none" id="Properties4-to-Root1" style="stroke:#181818;stroke-width:1;"/><polygon fill="none" points="1746.48,805,1734.1135,790.6101,1727.9529,800.9079,1746.48,805" style="stroke:#181818;stroke-width:1;"/></g><!--link OutputUnitArray to Properties4--><g id="link_OutputUnitArray_Properties4"><path codeLine="194" d="M1192.69,498.11 C1210.03,535.65 1224.7319,567.479 1239.0419,598.459 " fill="none" id="OutputUnitArray-to-Properties4" style="stroke:#181818;stroke-width:1;"/><polygon fill="none" points="1246.59,614.8,1244.4889,595.943,1233.595,600.9751,1246.59,614.8" style="stroke:#181818;stroke-width:1;"/></g><!--link FieldDefs to Flag--><g id="link_FieldDefs_Flag"><path codeLine="195" d="M918.23,324.73 C864.08,349.59 819.8387,369.8905 771.6087,392.0305 " fill="none" id="FieldDefs-to-Flag" style="stroke:#181818;stroke-width:1;"/><polygon fill="none" points="755.25,399.54,774.1119,397.4834,769.1056,386.5776,755.25,399.54" style="stroke:#181818;stroke-width:1;"/></g><!--link FieldDefs to Hierarchical--><g id="link_FieldDefs_Hierarchical"><path codeLine="196" d="M1174.34,325.11 C1214.07,346.47 1241.9345,361.4493 1279.5045,381.6393 " fill="none" id="FieldDefs-to-Hierarchical" style="stroke:#181818;stroke-width:1;"/><polygon fill="none" points="1295.36,390.16,1282.3447,376.3541,1276.6642,386.9245,1295.36,390.16" style="stroke:#181818;stroke-width:1;"/></g><!--link FieldDefs to ListModel--><g id="link_FieldDefs_ListModel"><path codeLine="197" d="M918.43,291.86 C818.1,314.92 679.24,348.77 559,385 C538.63,391.14 533.9836,392.397 513.5336,399.577 " fill="none" id="FieldDefs-to-ListModel" style="stroke:#181818;stroke-width:1;"/><polygon fill="none" points="496.55,405.54,515.5213,405.2383,511.546,393.9158,496.55,405.54" style="stroke:#181818;stroke-width:1;"/></g><!--link FieldDefs to OutputUnit--><g id="link_FieldDefs_OutputUnit"><path codeLine="198" d="M1016.55,325.11 C1004.46,344.61 1000.7411,350.5894 989.0111,369.5194 " fill="none" id="FieldDefs-to-OutputUnit" style="stroke:#181818;stroke-width:1;"/><polygon fill="none" points="979.53,384.82,994.1113,372.6797,983.9108,366.359,979.53,384.82" style="stroke:#181818;stroke-width:1;"/></g><!--link FieldDefs to OutputUnitArray--><g id="link_FieldDefs_OutputUnitArray"><path codeLine="199" d="M1095.45,325.11 C1107.54,344.61 1111.2589,350.5894 1122.9889,369.5194 " fill="none" id="FieldDefs-to-OutputUnitArray" style="stroke:#181818;stroke-width:1;"/><polygon fill="none" points="1132.47,384.82,1128.0892,366.359,1117.8887,372.6797,1132.47,384.82" style="stroke:#181818;stroke-width:1;"/></g><!--link Root2 to AnyOfItem4--><g id="link_Root2_AnyOfItem4"><path codeLine="200" d="M1618,490.21 C1618,528.63 1618,563.52 1618,596.73 " fill="none" id="Root2-to-AnyOfItem4" style="stroke:#181818;stroke-width:1;"/><polygon fill="none" points="1618,614.73,1624,596.73,1612,596.73,1618,614.73" style="stroke:#181818;stroke-width:1;"/></g><!--link Properties5 to Root2--><g id="link_Properties5_Root2"><path codeLine="201" d="M1480.09,292.68 C1505.88,320.33 1531.6593,347.96 1561.2693,379.69 " fill="none" id="Properties5-to-Root2" style="stroke:#181818;stroke-width:1;"/><polygon fill="none" points="1573.55,392.85,1565.656,375.5965,1556.8827,383.7836,1573.55,392.85" style="stroke:#181818;stroke-width:1;"/></g><!--link Model to FieldDefs--><g id="link_Model_FieldDefs"><path codeLine="202" d="M1131.25,136.07 C1119.5,155.34 1115.9574,161.1395 1104.2074,180.4195 " fill="none" id="Model-to-FieldDefs" style="stroke:#181818;stroke-width:1;"/><polygon fill="none" points="1094.84,195.79,1109.3309,183.542,1099.0839,177.297,1094.84,195.79" style="stroke:#181818;stroke-width:1;"/></g><!--link Model to Properties5--><g id="link_Model_Properties5"><path codeLine="203" d="M1263.57,134.77 C1310.83,166.22 1351.1053,193.0172 1389.3153,218.4472 " fill="none" id="Model-to-Properties5" style="stroke:#181818;stroke-width:1;"/><polygon fill="none" points="1404.3,228.42,1392.6395,213.4522,1385.991,223.4421,1404.3,228.42" style="stroke:#181818;stroke-width:1;"/></g><!--SRC=[jLRBRjmW5Dtp5RElil1ZDYmgZPH6YPGsKQjsKqKMid46YG4NuqgZjlzU31WmU3oJZkeTlW_kkOzpgIdg-yqtH4cp-GKswdidYQGORdefxFdOsUCV06gj_onuXuKak9-CVeuUe77azUueUfqqEcS30tiZ4_Z7G0HM3Xv9Bx-hkrukZkKpvtAweoMODfN0xSbuiqbLA3EeZRtQFS42YNfFQaJNmywkZ_iMIqHeVtde-MAkzP_6-8AJKsy-nlMHD_WCdlnwF1zKM0EIXBDd9FTlQAOlzHuVq2EljR7B1nS790FB0s4LnUnLxk66C7cn-mVMIyHg75zmWUcE7P_Q1uaF9ufqfhIkrn0xLhorINLENwRQjMYW2kadpd1uD-DI1zolkyaM_SGGVMogvXrk_fVxNTEGqIkYAKUiPRXmKJW7LTYgItvFjw8GN9p1LRmDbx-rE3s6s8r0rQ6nJ-SpOPHwtUuLjUq8e_utIiGsRQ0Mz_7ov6SJPbTU6BQIDJ8zKCsqqiQme7GoeKsgpyZJ8Bj1VcL4hbDBSJsrZFKwIvGZbRk98wC5D8R_iDNAT4jaIyXtGg3ZElpoUlXt8-9RtFeKgBKAzN8rvtsmj-1iYnavLLTMXt4BGByGZ8XhBDMWmC00M2Aiq0WLnjWN9hcyf53v-d2MRZZxMf3E381FqUfyRjFQvLvljWjDX8e1LCLSajUAkRscc04XtjpyVc-9Gp-Hz3aWjl2zecNwdJ9xdaGc6GWV2e7_vFVqHF0lWyXL3jp-qX9N5H0kZRae0mjx9LO9oDw8bZZTSlVSjW0X_owYixyZnata4TacyeHb4mr7j8aafCxKBANND7X3iG6pHgKfW64v4wecjv2qNAja8EQeo549FAbeaIQJwD-CI2APfv584738IOcX3iC3yqAN81naXoS7GQVwILrit-rV]--></g></svg>
